HIERARCHY
ROOT Hips
{
  OFFSET -93.2783 94.5362 -29.8684
  CHANNELS 6 Xposition Yposition Zposition Zrotation Xrotation Yrotation
  JOINT Spine
  {
    OFFSET 0 7.29544 0
    CHANNELS 6 Xposition Yposition Zposition Zrotation Xrotation Yrotation
    JOINT Spine1
    {
      OFFSET 0 7.29544 0
      CHANNELS 6 Xposition Yposition Zposition Zrotation Xrotation Yrotation
      JOINT Spine2
      {
        OFFSET 0 7.29544 0
        CHANNELS 6 Xposition Yposition Zposition Zrotation Xrotation Yrotation
        JOINT Spine3
        {
          OFFSET 0 7.29544 0
          CHANNELS 6 Xposition Yposition Zposition Zrotation Xrotation Yrotation
          JOINT Neck
          {
            OFFSET 0 15.5028 0
            CHANNELS 6 Xposition Yposition Zposition Zrotation Xrotation Yrotation
            JOINT Head
            {
              OFFSET 0 9.84884 0
              CHANNELS 6 Xposition Yposition Zposition Zrotation Xrotation Yrotation
              End Site
              {
                OFFSET 0 18.4666 0
              }
            }
          }
          JOINT LeftShoulder
          {
            OFFSET 5 17 0
            CHANNELS 6 Xposition Yposition Zposition Zrotation Xrotation Yrotation
            JOINT LeftShoulder2
            {
              OFFSET 6.75 0 0
              CHANNELS 6 Xposition Yposition Zposition Zrotation Xrotation Yrotation
              JOINT LeftArm
              {
                OFFSET 6.75 0 0
                CHANNELS 6 Xposition Yposition Zposition Zrotation Xrotation Yrotation
                JOINT LeftForeArm
                {
                  OFFSET 0 -31.2558 -2
                  CHANNELS 6 Xposition Yposition Zposition Zrotation Xrotation Yrotation
                  JOINT LeftHand
                  {
                    OFFSET 0 -24.7442 2
                    CHANNELS 6 Xposition Yposition Zposition Zrotation Xrotation Yrotation
                    JOINT LeftHandThumb1
                    {
                      OFFSET -0.5 -1.5 2.65
                      CHANNELS 6 Xposition Yposition Zposition Zrotation Xrotation Yrotation
                      JOINT LeftHandThumb2
                      {
                        OFFSET 0 -3.8 3.7
                        CHANNELS 6 Xposition Yposition Zposition Zrotation Xrotation Yrotation
                        JOINT LeftHandThumb3
                        {
                          OFFSET 0 -3 2.7
                          CHANNELS 6 Xposition Yposition Zposition Zrotation Xrotation Yrotation
                          End Site
                          {
                            OFFSET 0 -2.3 1.8
                          }
                        }
                      }
                    }
                    JOINT LeftHandIndex
                    {
                      OFFSET 0 -1.9 1.6
                      CHANNELS 6 Xposition Yposition Zposition Zrotation Xrotation Yrotation
                      JOINT LeftHandIndex1
                      {
                        OFFSET 0 -8.3 1.9
                        CHANNELS 6 Xposition Yposition Zposition Zrotation Xrotation Yrotation
                        JOINT LeftHandIndex2
                        {
                          OFFSET 0 -4.5 0
                          CHANNELS 6 Xposition Yposition Zposition Zrotation Xrotation Yrotation
                          JOINT LeftHandIndex3
                          {
                            OFFSET 0 -3.4 0
                            CHANNELS 6 Xposition Yposition Zposition Zrotation Xrotation Yrotation
                            End Site
                            {
                              OFFSET 0 -2.6 0
                            }
                          }
                        }
                      }
                    }
                    JOINT LeftHandMiddle
                    {
                      OFFSET -0.25 -2.2 0.4
                      CHANNELS 6 Xposition Yposition Zposition Zrotation Xrotation Yrotation
                      JOINT LeftHandMiddle1
                      {
                        OFFSET 0 -8.3 1
                        CHANNELS 6 Xposition Yposition Zposition Zrotation Xrotation Yrotation
                        JOINT LeftHandMiddle2
                        {
                          OFFSET 0 -4.65 0
                          CHANNELS 6 Xposition Yposition Zposition Zrotation Xrotation Yrotation
                          JOINT LeftHandMiddle3
                          {
                            OFFSET 0 -3.3 0
                            CHANNELS 6 Xposition Yposition Zposition Zrotation Xrotation Yrotation
                            End Site
                            {
                              OFFSET 0 -2.7 0
                            }
                          }
                        }
                      }
                    }
                    JOINT LeftHandRing
                    {
                      OFFSET -0.5 -2.15 -0.8
                      CHANNELS 6 Xposition Yposition Zposition Zrotation Xrotation Yrotation
                      JOINT LeftHandRing1
                      {
                        OFFSET 0 -7.75 -0.2
                        CHANNELS 6 Xposition Yposition Zposition Zrotation Xrotation Yrotation
                        JOINT LeftHandRing2
                        {
                          OFFSET 0 -3.8 0
                          CHANNELS 6 Xposition Yposition Zposition Zrotation Xrotation Yrotation
                          JOINT LeftHandRing3
                          {
                            OFFSET 0 -3.4 0
                            CHANNELS 6 Xposition Yposition Zposition Zrotation Xrotation Yrotation
                            End Site
                            {
                              OFFSET 0 -2.6 0
                            }
                          }
                        }
                      }
                    }
                    JOINT LeftHandPinky
                    {
                      OFFSET -0.75 -1.75 -1.85
                      CHANNELS 6 Xposition Yposition Zposition Zrotation Xrotation Yrotation
                      JOINT LeftHandPinky1
                      {
                        OFFSET 0 -7.15 -1
                        CHANNELS 6 Xposition Yposition Zposition Zrotation Xrotation Yrotation
                        JOINT LeftHandPinky2
                        {
                          OFFSET 0 -3 0
                          CHANNELS 6 Xposition Yposition Zposition Zrotation Xrotation Yrotation
                          JOINT LeftHandPinky3
                          {
                            OFFSET 0 -2.35 0
                            CHANNELS 6 Xposition Yposition Zposition Zrotation Xrotation Yrotation
                            End Site
                            {
                              OFFSET 0 -2.1 0
                            }
                          }
                        }
                      }
                    }
                  }
                }
              }
            }
          }
          JOINT RightShoulder
          {
            OFFSET -5 17 0
            CHANNELS 6 Xposition Yposition Zposition Zrotation Xrotation Yrotation
            JOINT RightShoulder2
            {
              OFFSET -6.75 0 0
              CHANNELS 6 Xposition Yposition Zposition Zrotation Xrotation Yrotation
              JOINT RightArm
              {
                OFFSET -6.75 0 0
                CHANNELS 6 Xposition Yposition Zposition Zrotation Xrotation Yrotation
                JOINT RightForeArm
                {
                  OFFSET 0 -31.2558 -2
                  CHANNELS 6 Xposition Yposition Zposition Zrotation Xrotation Yrotation
                  JOINT RightHand
                  {
                    OFFSET 0 -24.7442 2
                    CHANNELS 6 Xposition Yposition Zposition Zrotation Xrotation Yrotation
                    JOINT RightHandThumb1
                    {
                      OFFSET 0.5 -1.5 2.65
                      CHANNELS 6 Xposition Yposition Zposition Zrotation Xrotation Yrotation
                      JOINT RightHandThumb2
                      {
                        OFFSET 0 -3.8 3.7
                        CHANNELS 6 Xposition Yposition Zposition Zrotation Xrotation Yrotation
                        JOINT RightHandThumb3
                        {
                          OFFSET 0 -3 2.7
                          CHANNELS 6 Xposition Yposition Zposition Zrotation Xrotation Yrotation
                          End Site
                          {
                            OFFSET 0 -2.3 1.8
                          }
                        }
                      }
                    }
                    JOINT RightHandIndex
                    {
                      OFFSET 0 -1.9 1.6
                      CHANNELS 6 Xposition Yposition Zposition Zrotation Xrotation Yrotation
                      JOINT RightHandIndex1
                      {
                        OFFSET 0 -8.3 1.9
                        CHANNELS 6 Xposition Yposition Zposition Zrotation Xrotation Yrotation
                        JOINT RightHandIndex2
                        {
                          OFFSET 0 -4.5 0
                          CHANNELS 6 Xposition Yposition Zposition Zrotation Xrotation Yrotation
                          JOINT RightHandIndex3
                          {
                            OFFSET 0 -3.4 0
                            CHANNELS 6 Xposition Yposition Zposition Zrotation Xrotation Yrotation
                            End Site
                            {
                              OFFSET 0 -2.6 0
                            }
                          }
                        }
                      }
                    }
                    JOINT RightHandMiddle
                    {
                      OFFSET 0.25 -2.2 0.4
                      CHANNELS 6 Xposition Yposition Zposition Zrotation Xrotation Yrotation
                      JOINT RightHandMiddle1
                      {
                        OFFSET 0 -8.3 1
                        CHANNELS 6 Xposition Yposition Zposition Zrotation Xrotation Yrotation
                        JOINT RightHandMiddle2
                        {
                          OFFSET 0 -4.65 0
                          CHANNELS 6 Xposition Yposition Zposition Zrotation Xrotation Yrotation
                          JOINT RightHandMiddle3
                          {
                            OFFSET 0 -3.3 0
                            CHANNELS 6 Xposition Yposition Zposition Zrotation Xrotation Yrotation
                            End Site
                            {
                              OFFSET 0 -2.7 0
                            }
                          }
                        }
                      }
                    }
                    JOINT RightHandRing
                    {
                      OFFSET 0.5 -2.15 -0.8
                      CHANNELS 6 Xposition Yposition Zposition Zrotation Xrotation Yrotation
                      JOINT RightHandRing1
                      {
                        OFFSET 0 -7.75 -0.2
                        CHANNELS 6 Xposition Yposition Zposition Zrotation Xrotation Yrotation
                        JOINT RightHandRing2
                        {
                          OFFSET 0 -3.8 0
                          CHANNELS 6 Xposition Yposition Zposition Zrotation Xrotation Yrotation
                          JOINT RightHandRing3
                          {
                            OFFSET 0 -3.4 0
                            CHANNELS 6 Xposition Yposition Zposition Zrotation Xrotation Yrotation
                            End Site
                            {
                              OFFSET 0 -2.6 0
                            }
                          }
                        }
                      }
                    }
                    JOINT RightHandPinky
                    {
                      OFFSET 0.75 -1.75 -1.85
                      CHANNELS 6 Xposition Yposition Zposition Zrotation Xrotation Yrotation
                      JOINT RightHandPinky1
                      {
                        OFFSET 0 -7.15 -1
                        CHANNELS 6 Xposition Yposition Zposition Zrotation Xrotation Yrotation
                        JOINT RightHandPinky2
                        {
                          OFFSET 0 -3 0
                          CHANNELS 6 Xposition Yposition Zposition Zrotation Xrotation Yrotation
                          JOINT RightHandPinky3
                          {
                            OFFSET 0 -2.35 0
                            CHANNELS 6 Xposition Yposition Zposition Zrotation Xrotation Yrotation
                            End Site
                            {
                              OFFSET 0 -2.1 0
                            }
                          }
                        }
                      }
                    }
                  }
                }
              }
            }
          }
        }
      }
    }
  }
  JOINT LeftUpLeg
  {
    OFFSET 14 0 0
    CHANNELS 6 Xposition Yposition Zposition Zrotation Xrotation Yrotation
    JOINT LeftLeg
    {
      OFFSET 0 -45.7849 -1
      CHANNELS 6 Xposition Yposition Zposition Zrotation Xrotation Yrotation
      JOINT LeftFoot
      {
        OFFSET 0 -41.7151 -2
        CHANNELS 6 Xposition Yposition Zposition Zrotation Xrotation Yrotation
        JOINT LeftToeBase
        {
          OFFSET 0 -7.5 12.5
          CHANNELS 6 Xposition Yposition Zposition Zrotation Xrotation Yrotation
          JOINT LeftFootToe
          {
            OFFSET 0 0 4
            CHANNELS 6 Xposition Yposition Zposition Zrotation Xrotation Yrotation
            End Site
            {
              OFFSET 0 0 0
            }
          }
        }
      }
    }
  }
  JOINT RightUpLeg
  {
    OFFSET -14 0 0
    CHANNELS 6 Xposition Yposition Zposition Zrotation Xrotation Yrotation
    JOINT RightLeg
    {
      OFFSET 0 -45.7849 -1
      CHANNELS 6 Xposition Yposition Zposition Zrotation Xrotation Yrotation
      JOINT RightFoot
      {
        OFFSET 0 -41.7151 -2
        CHANNELS 6 Xposition Yposition Zposition Zrotation Xrotation Yrotation
        JOINT RightToeBase
        {
          OFFSET 0 -7.5 12.5
          CHANNELS 6 Xposition Yposition Zposition Zrotation Xrotation Yrotation
          JOINT RightFootToe
          {
            OFFSET 0 0 4
            CHANNELS 6 Xposition Yposition Zposition Zrotation Xrotation Yrotation
            End Site
            {
              OFFSET 0 0 0
            }
          }
        }
      }
    }
  }
}
MOTION
Frames:	4
Frame Time:	0.0111111
0 95 0 0 0 -0 0 7.29544 0 0 0 -0 0 7.29544 0 0 0 -0 0 7.29544 0 0 0 -0 0 7.29544 0 0 0 -0 0 15.5028 0 0 0 -0 0 9.84884 0 0 0 -0 5 17 0 0 0 -0 6.75 0 0 0 0 -0 6.75 0 0 90.0002 0 -0 0 -31.2558 -2 0 0 -0 0 -24.7442 2 0 0 -0 -0.5 -1.5 2.65 0 0 -0 0 -3.8 3.7 0 0 -0 0 -3 2.7 0 0 -0 0 -1.9 1.6 0 0 -0 0 -8.3 1.9 0 0 -0 2.84217e-14 -4.5 0 0 0 -0 0 -3.4 0 0 0 -0 -0.25 -2.2 0.4 0 0 -0 0 -8.3 1 0 0 -0 0 -4.65 0 0 0 -0 0 -3.3 0 0 0 -0 -0.5 -2.15 -0.8 0 0 -0 0 -7.75 -0.2 0 0 -0 0 -3.8 0 0 0 -0 0 -3.4 0 0 0 -0 -0.75 -1.75 -1.85 0 0 -0 -2.84217e-14 -7.15 -1 0 0 -0 2.84217e-14 -3 0 0 0 -0 -2.84217e-14 -2.35 0 0 0 -0 -5 17 0 0 0 -0 -6.75 0 0 0 0 -0 -6.75 0 0 -90.0002 0 -0 0 -31.2558 -2 0 0 -0 0 -24.7442 2 0 0 -0 0.5 -1.5 2.65 0 0 -0 0 -3.8 3.7 0 0 -0 0 -3 2.7 0 0 -0 0 -1.9 1.6 0 0 -0 0 -8.3 1.9 0 0 -0 -2.84217e-14 -4.5 0 0 0 -0 0 -3.4 0 0 0 -0 0.25 -2.2 0.4 0 0 -0 0 -8.3 1 0 0 -0 0 -4.65 0 0 0 -0 0 -3.3 0 0 0 -0 0.5 -2.15 -0.8 0 0 -0 0 -7.75 -0.2 0 0 -0 0 -3.8 0 0 0 -0 0 -3.4 0 0 0 -0 0.75 -1.75 -1.85 0 0 -0 2.84217e-14 -7.15 -1 0 0 -0 -2.84217e-14 -3 0 0 0 -0 2.84217e-14 -2.35 0 0 0 -0 14 0 0 0 0 -0 0 -45.7849 -1 0 0 -0 0 -41.7151 -2 0 0 -0 0 -7.5 12.5 0 0 -0 0 0 4 0 0 -0 -14 0 0 0 0 -0 0 -45.7849 -1 0 0 -0 0 -41.7151 -2 0 0 -0 0 -7.5 12.5 0 0 -0 0 0 4 0 0 -0 
-94.5422 94.5899 -32.56 0.09116 -0.122359 126.024 -1.42109e-14 7.29544 0 0.773045 -0.730626 6.70993 1.42109e-14 7.29544 0 -0.268736 0.365566 -6.11909 0 7.29544 0 -0.139344 0.179325 -3.06195 0 7.29544 7.10543e-15 -0.139152 0.179063 -3.05757 0 15.5028 -1.42109e-14 2.32911 -1.8204 -0.985236 -1.42109e-14 9.84884 7.10543e-15 0.948694 -0.657287 -2.38214 5 17 0 -0.522893 1.43824 -3.95336 6.75 -2.84217e-14 1.42109e-14 -0.690575 -0.915516 -5.06309 6.75 0 -1.42109e-14 4.80949 -7.2057 2.79528 0 -31.2558 -2 4.51353 -1.05484 -13.6557 -1.42109e-14 -24.7442 2 3.15281 -3.55736 -20.001 -0.5 -1.5 2.65 0.965485 3.1789 -7.95 0 -3.8 3.7 0.0677376 2.32484 -0.0105903 -7.10543e-15 -3 2.7 0.000194237 1.16864 -0.00952367 -7.10543e-15 -1.9 1.6 3.18055e-15 -1.98785e-15 -1.59028e-15 7.10543e-15 -8.3 1.9 -4.99265 -2.94449 -0.113123 0 -4.5 0 -5.14388 -4.87022e-15 7.95139e-15 -7.10543e-15 -3.4 0 -4.80425 1.2921e-15 6.36111e-15 -0.25 -2.2 0.4 3.18055e-15 -1.98785e-15 -1.59028e-15 7.10543e-15 -8.3 1 -6.54231 -1.9275 -0.0544001 -7.10543e-15 -4.65 1.42109e-14 -9.83733 1.88845e-15 1.43125e-14 7.10543e-15 -3.3 0 -8.67659 1.59028e-15 1.59028e-15 -0.5 -2.15 -0.8 3.18055e-15 -1.98785e-15 -1.59028e-15 0 -7.75 -0.2 -8.87603 -0.705621 0.07329 -7.10543e-15 -3.8 0 -0.437881 2.98177e-16 3.18055e-15 0 -3.4 1.42109e-14 -0.435275 -1.09332e-15 -1.59028e-15 -0.75 -1.75 -1.85 3.18055e-15 -1.98785e-15 -1.59028e-15 0 -7.15 -1 -9.59213 -0.108971 0.142701 0 -3 0 -1.97927 0 3.18055e-15 7.10543e-15 -2.35 0 -1.92682 2.98177e-16 1.59028e-15 -5 17 -1.42109e-14 -0.29476 0.575712 0.0258718 -6.75 0 0 -0.971589 -0.168134 -1.35927 -6.75 0 -1.42109e-14 -0.541255 2.95846 4.77418 0 -31.2558 -2 0.383102 -7.00383 2.45739 0 -24.7442 2 -3.66509 -5.19713 13.2873 0.5 -1.5 2.65 -3.14269 -1.95421 -5.0553 0 -3.8 3.7 -0.139032 0.485522 -9.54201e-15 0 -3 2.7 -0.0133136 0.823191 0.0166866 7.10543e-15 -1.9 1.6 1.43452e-31 2.5842e-15 -3.18055e-15 -1.42109e-14 -8.3 1.9 5.93371 -2.70913 0.121504 -1.42109e-14 -4.5 0 8.04534 -4.77083e-15 -3.18055e-15 0 -3.4 -7.10543e-15 7.24823 -4.77083e-15 -9.54166e-15 0.25 -2.2 0.4 1.43452e-31 2.5842e-15 -3.18055e-15 0 -8.3 1 6.12314 -2.20534 0.0842614 0 -4.65 -7.10543e-15 7.93172 0 -1.27222e-14 -1.42109e-14 -3.3 3.55271e-15 7.15568 -1.59028e-15 -3.18055e-15 0.5 -2.15 -0.8 1.43452e-31 2.5842e-15 -3.18055e-15 0 -7.75 -0.2 6.39745 -1.37664 0.0149017 0 -3.8 -7.10543e-15 8.35479 0 -3.18055e-15 -1.42109e-14 -3.4 7.10543e-15 7.49906 -1.59028e-15 -1.59028e-14 0.75 -1.75 -1.85 1.43452e-31 2.5842e-15 -3.18055e-15 -1.42109e-14 -7.15 -1 6.45129 -0.940905 -0.0217367 0 -3 -7.10543e-15 4.05589 1.59028e-15 1.27222e-14 -1.42109e-14 -2.35 0 3.84156 1.59028e-15 3.18055e-15 14 -1.42109e-14 0 3.67713 -3.69524 -7.11508 0 -45.7849 -1 0.00336218 7.01101 -0.145715 0 -41.7151 -2 -3.95758 -3.78008 4.75356 0 -7.5 12.5 -7.43137e-20 1.51661e-20 -9.54166e-15 0 0 4 1.14603 -0.0887631 -12.5044 -14 0 0 -1.31076 1.25462 -11.3128 -7.10543e-15 -45.7849 -1 -0.00202386 3.85101 -0.260559 0 -41.7151 -2 1.71028 -4.78289 2.02181 0 -7.5 12.5 -1.55452e-20 3.24175e-20 -6.36111e-15 -7.10543e-15 1.0842e-19 4 -0.669258 -0.590177 -13.689 
-94.5417 94.5898 -32.5609 0.0911677 -0.122353 126.028 0 7.29544 0 0.772974 -0.73079 6.71 1.42109e-14 7.29544 0 -0.26869 0.365645 -6.11948 0 7.29544 7.10543e-15 -0.139323 0.179367 -3.06213 0 7.29544 -1.42109e-14 -0.13913 0.179104 -3.05775 -1.42109e-14 15.5028 1.42109e-14 2.32764 -1.81821 -0.981707 0 9.84884 -1.42109e-14 0.945735 -0.652077 -2.3738 5 17 0 -0.522188 1.43699 -3.95158 6.75 2.84217e-14 0 -0.690717 -0.914951 -5.06491 6.75 0 1.42109e-14 4.81063 -7.2084 2.79106 0 -31.2558 -2 4.51362 -1.05299 -13.6611 0 -24.7442 2 3.15304 -3.55923 -19.9974 -0.5 -1.5 2.65 0.967295 3.17748 -7.94775 7.10543e-15 -3.8 3.7 0.0677391 2.32716 -0.0105917 0 -3 2.7 0.000194324 1.16916 -0.00952372 7.10543e-15 -1.9 1.6 -1.59028e-15 2.38542e-15 4.77083e-15 0 -8.3 1.9 -4.99726 -2.94615 -0.113294 -7.10543e-15 -4.5 0 -5.14132 4.96962e-15 7.95139e-15 7.10543e-15 -3.4 -1.42109e-14 -4.80202 3.23025e-16 1.59028e-15 -0.25 -2.2 0.4 -1.59028e-15 2.38542e-15 4.77083e-15 -7.10543e-15 -8.3 1 -6.54556 -1.92871 -0.054518 7.10543e-15 -4.65 0 -9.83702 7.95139e-16 4.77083e-15 -7.10543e-15 -3.3 1.42109e-14 -8.67635 -7.95139e-16 -3.18055e-15 -0.5 -2.15 -0.8 -1.59028e-15 2.38542e-15 4.77083e-15 0 -7.75 -0.2 -8.87684 -0.70646 0.0732201 0 -3.8 0 -0.436818 8.94531e-16 -0 7.10543e-15 -3.4 0 -0.434222 1.09332e-15 3.18055e-15 -0.75 -1.75 -1.85 -1.59028e-15 2.38542e-15 4.77083e-15 7.10543e-15 -7.15 -1 -9.5913 -0.109591 0.142633 7.10543e-15 -3 0 -1.98022 1.49089e-15 -0 0 -2.35 -1.42109e-14 -1.92772 -1.21756e-15 -1.59028e-15 -5 17 1.42109e-14 -0.294707 0.575883 0.0235088 -6.75 2.84217e-14 0 -0.971441 -0.167718 -1.35727 -6.75 -2.84217e-14 0 -0.540326 2.95838 4.77545 0 -31.2558 -2 0.383666 -7.00582 2.45007 0 -24.7442 2 -3.66208 -5.19499 13.2827 0.5 -1.5 2.65 -3.14002 -1.95476 -5.0558 7.10543e-15 -3.8 3.7 -0.139033 0.485521 -0 7.10543e-15 -3 2.7 -0.0133162 0.82319 0.0166866 7.10543e-15 -1.9 1.6 6.95746e-16 9.93923e-16 -0 -7.10543e-15 -8.3 1.9 5.93123 -2.70886 0.121452 -1.42109e-14 -4.5 0 8.05109 -1.59028e-15 -3.18055e-15 0 -3.4 -7.10543e-15 7.25291 1.59028e-15 9.54166e-15 0.25 -2.2 0.4 6.95746e-16 9.93923e-16 -0 0 -8.3 1 6.12145 -2.20557 0.0842617 0 -4.65 3.55271e-15 7.9254 -1.59028e-15 9.54166e-15 0 -3.3 -3.55271e-15 7.15052 1.59028e-15 -6.36111e-15 0.5 -2.15 -0.8 6.95746e-16 9.93923e-16 -0 1.42109e-14 -7.75 -0.2 6.39714 -1.37786 0.0149696 -1.42109e-14 -3.8 -3.55271e-15 8.35577 0 -6.36111e-15 0 -3.4 7.10543e-15 7.49985 0 3.18055e-15 0.75 -1.75 -1.85 6.95746e-16 9.93923e-16 -0 0 -7.15 -1 6.4517 -0.942603 -0.0216436 0 -3 0 4.05376 -4.77083e-15 -1.27222e-14 0 -2.35 -1.42109e-14 3.83965 1.59028e-15 -0 14 -1.42109e-14 0 3.67656 -3.69683 -7.11767 1.42109e-14 -45.7849 -1 0.00336095 7.01398 -0.145452 0 -41.7151 -2 -3.95483 -3.78608 4.75242 0 -7.5 12.5 -8.62091e-35 7.76503e-19 6.36111e-15 0 0 4 1.14389 -0.0840478 -12.5044 -14 -2.84217e-14 -7.10543e-15 -1.31013 1.25656 -11.3073 0 -45.7849 -1 -0.00202751 3.84989 -0.260545 0 -41.7151 -2 1.71014 -4.78986 2.01275 7.10543e-15 -7.5 12.5 3.88251e-19 -3.88251e-19 -3.18055e-15 7.10543e-15 0 4 -0.669365 -0.58427 -13.689 
-94.5419 94.5898 -32.562 0.0911441 -0.121833 126.032 0 7.29544 -7.10543e-15 0.77279 -0.730856 6.71036 -1.42109e-14 7.29544 -7.10543e-15 -0.268749 0.365737 -6.11994 0 7.29544 0 -0.1392 0.179285 -3.06254 0 7.29544 -1.42109e-14 -0.139007 0.179022 -3.05816 0 15.5028 -2.84217e-14 2.32804 -1.81825 -0.981208 0 9.84884 -7.10543e-15 0.946932 -0.647394 -2.36702 5 17 -2.84217e-14 -0.521109 1.43495 -3.94908 6.75 2.84217e-14 0 -0.690829 -0.914878 -5.06674 6.75 2.84217e-14 0 4.81056 -7.20901 2.78496 0 -31.2558 -2 4.5152 -1.05269 -13.6664 0 -24.7442 2 3.15362 -3.56216 -19.9942 -0.5 -1.5 2.65 0.966446 3.17525 -7.94806 0 -3.8 3.7 0.0677391 2.32752 -0.0105917 0 -3 2.7 0.000194325 1.16917 -0.00952372 7.10543e-15 -1.9 1.6 1.59028e-15 -3.97569e-16 -0 -7.10543e-15 -8.3 1.9 -5.0013 -2.94748 -0.113502 7.10543e-15 -4.5 1.42109e-14 -5.13754 -4.27387e-15 -0 0 -3.4 -1.42109e-14 -4.79887 -5.71506e-16 -6.36111e-15 -0.25 -2.2 0.4 1.59028e-15 -3.97569e-16 -0 -7.10543e-15 -8.3 1 -6.54901 -1.93006 -0.0545918 0 -4.65 0 -9.83371 1.14301e-15 -0 0 -3.3 1.42109e-14 -8.67376 -1.98785e-15 -3.18055e-15 -0.5 -2.15 -0.8 1.59028e-15 -3.97569e-16 -0 0 -7.75 -0.2 -8.87888 -0.708175 0.0732372 0 -3.8 0 -0.436778 -4.96962e-16 -3.18055e-15 0 -3.4 1.42109e-14 -0.434181 9.93923e-17 1.59028e-15 -0.75 -1.75 -1.85 1.59028e-15 -3.97569e-16 -0 0 -7.15 -1 -9.5925 -0.111684 0.142857 -7.10543e-15 -3 1.42109e-14 -1.98014 -1.98785e-16 -1.59028e-15 0 -2.35 -2.84217e-14 -1.92764 -6.21202e-16 -0 -5 17 -1.42109e-14 -0.294819 0.575937 0.0206297 -6.75 0 0 -0.970764 -0.16752 -1.3544 -6.75 0 0 -0.540247 2.95822 4.77594 0 -31.2558 -2 0.381662 -7.00602 2.44392 -7.10543e-15 -24.7442 2 -3.65804 -5.19732 13.2795 0.5 -1.5 2.65 -3.13643 -1.95657 -5.05476 -1.42109e-14 -3.8 3.7 -0.139033 0.485521 -9.54201e-15 0 -3 2.7 -0.0133162 0.823262 0.0166866 7.10543e-15 -1.9 1.6 1.98785e-16 -3.97569e-16 -9.54166e-15 0 -8.3 1.9 5.93096 -2.71018 0.121364 0 -4.5 3.55271e-15 8.05491 -3.18055e-15 6.36111e-15 0 -3.4 -3.55271e-15 7.2568 -3.18055e-15 9.54166e-15 0.25 -2.2 0.4 1.98785e-16 -3.97569e-16 -9.54166e-15 -7.10543e-15 -8.3 1 6.12074 -2.20564 0.0841722 0 -4.65 -3.55271e-15 7.91949 4.77083e-15 2.22639e-14 0 -3.3 -3.55271e-15 7.1457 0 6.36111e-15 0.5 -2.15 -0.8 1.98785e-16 -3.97569e-16 -9.54166e-15 0 -7.75 -0.2 6.39617 -1.37843 0.0149412 1.42109e-14 -3.8 -3.55271e-15 8.35735 0 9.54166e-15 0 -3.4 -7.10543e-15 7.50113 -1.59028e-15 3.18055e-15 0.75 -1.75 -1.85 1.98785e-16 -3.97569e-16 -9.54166e-15 1.42109e-14 -7.15 -1 6.45071 -0.942512 -0.0216305 0 -3 0 4.05353 1.59028e-15 -9.54166e-15 0 -2.35 0 3.8396 1.59028e-15 -3.18055e-15 14 1.42109e-14 -1.42109e-14 3.6757 -3.69728 -7.12042 0 -45.7849 -1 0.0032596 7.01384 -0.144926 0 -41.7151 -2 -3.9548 -3.78639 4.75006 1.42109e-14 -7.5 12.5 -7.76503e-19 0 6.36111e-15 0 0 4 1.14399 -0.0836318 -12.5044 -14 0 0 -1.31035 1.25808 -11.3013 0 -45.7849 -1 -0.00201535 3.84998 -0.26059 0 -41.7151 -2 1.71028 -4.79135 2.00256 -7.10543e-15 -7.5 12.5 -3.88251e-19 -3.88251e-19 -3.18055e-15 -1.42109e-14 -1.73472e-18 4 -0.669362 -0.584446 -13.689 
